<?xml version="1.0" encoding="UTF-8"?>
<!DOCTYPE svg PUBLIC "-//W3C//DTD SVG 1.1//EN" "http://www.w3.org/Graphics/SVG/1.1/DTD/svg11.dtd">
<svg xmlns="http://www.w3.org/2000/svg" version="1.1" width="700px" height="500px" style="shape-rendering:geometricPrecision; text-rendering:geometricPrecision; image-rendering:optimizeQuality; fill-rule:evenodd; clip-rule:evenodd" xmlns:xlink="http://www.w3.org/1999/xlink">
<g><path style="opacity:0.896" fill="#fefefe" d="M 206.5,222.5 C 202.167,223.833 197.833,223.833 193.5,222.5C 193.5,207.167 193.5,191.833 193.5,176.5C 184.774,176.409 176.107,177.076 167.5,178.5C 163.289,184.423 158.955,190.256 154.5,196C 157.703,201.107 162.369,203.941 168.5,204.5C 166.808,205.969 164.808,206.635 162.5,206.5C 157.92,205.799 153.586,204.633 149.5,203C 145.002,209.658 140.336,216.158 135.5,222.5C 130.733,223.797 126.066,223.797 121.5,222.5C 129.324,211.529 137.157,200.529 145,189.5C 146.139,186.417 147.472,183.417 149,180.5C 157.797,170.035 166.963,159.868 176.5,150C 187.134,141.957 199.134,138.457 212.5,139.5C 212.5,140.5 212.5,141.5 212.5,142.5C 204.202,142.876 196.868,145.71 190.5,151C 184.092,156.738 178.425,163.071 173.5,170C 189.884,169.762 206.218,168.595 222.5,166.5C 222.5,167.5 222.5,168.5 222.5,169.5C 215.261,169.523 210.427,172.857 208,179.5C 206.589,193.783 206.089,208.116 206.5,222.5 Z M 193.5,222.5 C 174.167,222.5 154.833,222.5 135.5,222.5C 140.336,216.158 145.002,209.658 149.5,203C 153.586,204.633 157.92,205.799 162.5,206.5C 164.808,206.635 166.808,205.969 168.5,204.5C 162.369,203.941 157.703,201.107 154.5,196C 158.955,190.256 163.289,184.423 167.5,178.5C 176.107,177.076 184.774,176.409 193.5,176.5C 193.5,191.833 193.5,207.167 193.5,222.5 Z"/></g>
<g><path style="opacity:0.867" fill="#fefefe" d="M 283.5,222.5 C 278.833,223.833 274.167,223.833 269.5,222.5C 269.5,207.167 269.5,191.833 269.5,176.5C 261.141,176.526 252.807,177.026 244.5,178C 229.692,181.262 226.692,188.929 235.5,201C 238.466,202.266 241.466,203.433 244.5,204.5C 235.767,208.089 228.934,205.755 224,197.5C 220.603,185.46 224.77,177.294 236.5,173C 239.471,172.206 242.471,171.539 245.5,171C 263.216,169.973 280.883,168.473 298.5,166.5C 298.5,167.5 298.5,168.5 298.5,169.5C 290.924,169.578 286.091,173.245 284,180.5C 283.5,194.496 283.333,208.496 283.5,222.5 Z"/></g>
<g><path style="opacity:0.879" fill="#fefefe" d="M 119.5,222.5 C 113.833,223.833 108.167,223.833 102.5,222.5C 94.2238,209.05 85.7238,195.717 77,182.5C 71.4131,175.79 64.2464,172.457 55.5,172.5C 55.5,171.5 55.5,170.5 55.5,169.5C 71.5,169.5 87.5,169.5 103.5,169.5C 103.5,170.5 103.5,171.5 103.5,172.5C 97.0003,172.83 93.8336,176.163 94,182.5C 102.275,196.067 110.775,209.401 119.5,222.5 Z"/></g>
<g><path style="opacity:0.967" fill="#010101" d="M 102.5,222.5 C 108.167,223.833 113.833,223.833 119.5,222.5C 120.167,222.5 120.833,222.5 121.5,222.5C 126.066,223.797 130.733,223.797 135.5,222.5C 154.833,222.5 174.167,222.5 193.5,222.5C 197.833,223.833 202.167,223.833 206.5,222.5C 227.5,222.5 248.5,222.5 269.5,222.5C 274.167,223.833 278.833,223.833 283.5,222.5C 313.833,222.5 344.167,222.5 374.5,222.5C 375.153,240.864 374.487,258.864 372.5,276.5C 366.596,268.369 360.929,260.035 355.5,251.5C 360.624,244.086 365.624,236.586 370.5,229C 365.833,228.333 361.167,228.333 356.5,229C 353.623,233.255 350.623,237.422 347.5,241.5C 344.338,237.496 341.338,233.33 338.5,229C 333.798,228.172 329.131,228.338 324.5,229.5C 329.711,236.874 334.711,244.374 339.5,252C 334.018,260.312 328.351,268.479 322.5,276.5C 309.5,276.5 296.5,276.5 283.5,276.5C 278.833,275.167 274.167,275.167 269.5,276.5C 248.5,276.5 227.5,276.5 206.5,276.5C 202.167,275.167 197.833,275.167 193.5,276.5C 180.167,276.5 166.833,276.5 153.5,276.5C 147.734,275.196 142.067,275.196 136.5,276.5C 123.5,276.5 110.5,276.5 97.5,276.5C 92.5999,275.2 87.5999,275.2 82.5,276.5C 59.8333,276.5 37.1667,276.5 14.5,276.5C 14.5,258.5 14.5,240.5 14.5,222.5C 43.8333,222.5 73.1667,222.5 102.5,222.5 Z"/></g>
<g><path style="opacity:0.922" fill="#fefffe" d="M 377.5,227.5 C 381.833,227.5 386.167,227.5 390.5,227.5C 390.5,243.833 390.5,260.167 390.5,276.5C 386.167,276.5 381.833,276.5 377.5,276.5C 377.5,260.167 377.5,243.833 377.5,227.5 Z"/></g>
<g><path style="opacity:0.922" fill="#fefffe" d="M 399.5,227.5 C 403.833,227.5 408.167,227.5 412.5,227.5C 412.5,243.833 412.5,260.167 412.5,276.5C 408.167,276.5 403.833,276.5 399.5,276.5C 399.5,260.167 399.5,243.833 399.5,227.5 Z"/></g>
<g><path style="opacity:0.89" fill="#fefffe" d="M 436.5,227.5 C 446.545,227.205 456.545,227.705 466.5,229C 474.11,231.527 478.11,236.86 478.5,245C 478.187,254.974 473.187,260.974 463.5,263C 459.179,263.499 454.846,263.666 450.5,263.5C 450.5,267.833 450.5,272.167 450.5,276.5C 445.833,276.5 441.167,276.5 436.5,276.5C 436.5,260.167 436.5,243.833 436.5,227.5 Z M 450.5,238.5 C 453.85,238.335 457.183,238.502 460.5,239C 465.626,241.553 466.793,245.386 464,250.5C 463.25,251.126 462.416,251.626 461.5,252C 457.848,252.499 454.182,252.665 450.5,252.5C 450.5,247.833 450.5,243.167 450.5,238.5 Z"/></g>
<g><path style="opacity:0.916" fill="#fefffe" d="M 483.5,227.5 C 493.212,227.214 502.879,227.714 512.5,229C 522.442,232.71 526.276,239.876 524,250.5C 522.348,257.743 517.848,261.909 510.5,263C 505.845,263.499 501.179,263.666 496.5,263.5C 496.5,267.833 496.5,272.167 496.5,276.5C 492.167,276.5 487.833,276.5 483.5,276.5C 483.5,260.167 483.5,243.833 483.5,227.5 Z M 496.5,238.5 C 500.182,238.335 503.848,238.501 507.5,239C 513.103,243.034 513.436,247.368 508.5,252C 504.514,252.499 500.514,252.666 496.5,252.5C 496.5,247.833 496.5,243.167 496.5,238.5 Z"/></g>
<g><path style="opacity:0.928" fill="#fefffe" d="M 530.5,227.5 C 534.833,227.5 539.167,227.5 543.5,227.5C 543.5,240.167 543.5,252.833 543.5,265.5C 550.167,265.5 556.833,265.5 563.5,265.5C 563.5,269.167 563.5,272.833 563.5,276.5C 552.5,276.5 541.5,276.5 530.5,276.5C 530.5,260.167 530.5,243.833 530.5,227.5 Z"/></g>
<g><path style="opacity:0.89" fill="#fefffe" d="M 586.5,227.5 C 595.083,226.813 603.083,228.646 610.5,233C 611.357,233.689 612.023,234.522 612.5,235.5C 610.209,238.46 607.709,241.127 605,243.5C 598.065,237.957 590.898,237.457 583.5,242C 576.924,249.566 577.257,256.899 584.5,264C 597.538,269.585 602.871,265.418 600.5,251.5C 604.5,251.5 608.5,251.5 612.5,251.5C 612.83,258.2 612.497,264.866 611.5,271.5C 599.763,278.757 587.763,279.257 575.5,273C 564.427,262.678 562.594,250.844 570,237.5C 574.427,232.211 579.927,228.878 586.5,227.5 Z"/></g>
<g><path style="opacity:0.91" fill="#fefffe" d="M 646.5,227.5 C 652.892,226.791 658.892,227.957 664.5,231C 669.254,236.72 669.754,242.886 666,249.5C 661.167,255 656.333,260.5 651.5,266C 657.825,266.5 664.158,266.666 670.5,266.5C 670.5,269.833 670.5,273.167 670.5,276.5C 658.167,276.5 645.833,276.5 633.5,276.5C 633.335,273.482 633.502,270.482 634,267.5C 639.968,260.531 646.301,253.864 653,247.5C 656.762,242.714 655.762,239.714 650,238.5C 645.076,238.924 640.91,240.924 637.5,244.5C 634.618,241.74 633.118,238.407 633,234.5C 636.96,230.938 641.46,228.605 646.5,227.5 Z"/></g>
<g><path style="opacity:1" fill="#f9f9f9" d="M 372.5,276.5 C 367.167,276.5 361.833,276.5 356.5,276.5C 354.349,271.337 351.349,266.67 347.5,262.5C 343.669,266.835 340.336,271.502 337.5,276.5C 332.5,276.5 327.5,276.5 322.5,276.5C 328.351,268.479 334.018,260.312 339.5,252C 334.711,244.374 329.711,236.874 324.5,229.5C 329.131,228.338 333.798,228.172 338.5,229C 341.338,233.33 344.338,237.496 347.5,241.5C 350.623,237.422 353.623,233.255 356.5,229C 361.167,228.333 365.833,228.333 370.5,229C 365.624,236.586 360.624,244.086 355.5,251.5C 360.929,260.035 366.596,268.369 372.5,276.5 Z"/></g>
<g><path style="opacity:1" fill="#d8d8d8" d="M 144.5,237.5 C 148.182,237.335 151.848,237.501 155.5,238C 159.994,240.467 160.66,243.8 157.5,248C 154.464,250.006 151.131,250.84 147.5,250.5C 147.229,252.821 147.896,254.821 149.5,256.5C 147.167,257.833 144.833,257.833 142.5,256.5C 143.325,255.614 144.325,255.281 145.5,255.5C 145.322,250.961 145.655,246.461 146.5,242C 145.926,240.393 145.26,238.893 144.5,237.5 Z"/></g>
<g><path style="opacity:1" fill="#d4d4d4" d="M 164.5,237.5 C 167.85,237.335 171.183,237.502 174.5,238C 179.508,241.085 179.842,244.752 175.5,249C 172.937,250.079 170.271,250.579 167.5,250.5C 167.318,252.591 167.652,254.591 168.5,256.5C 166.5,257.833 164.5,257.833 162.5,256.5C 165.068,250.385 165.735,244.052 164.5,237.5 Z"/></g>
<g><path style="opacity:1" fill="#e3e3e3" d="M 183.5,237.5 C 185.924,237.192 188.257,237.526 190.5,238.5C 189.758,239.287 188.925,239.953 188,240.5C 187.389,245.496 186.889,250.496 186.5,255.5C 189.466,255.89 192.132,255.223 194.5,253.5C 195.429,254.689 195.762,256.022 195.5,257.5C 190.786,257.827 186.12,257.493 181.5,256.5C 182.489,255.532 183.156,254.365 183.5,253C 184.086,248.98 184.752,244.98 185.5,241C 184.571,239.923 183.904,238.756 183.5,237.5 Z"/></g>
<g><path style="opacity:1" fill="#dcdcdc" d="M 207.5,237.5 C 210.909,237.249 214.242,237.583 217.5,238.5C 218.833,240.167 218.833,241.833 217.5,243.5C 216.614,242.675 216.281,241.675 216.5,240.5C 206.51,238.658 202.344,242.658 204,252.5C 206.612,255.576 209.779,256.243 213.5,254.5C 214.429,253.311 214.762,251.978 214.5,250.5C 213.325,250.719 212.325,250.386 211.5,249.5C 213.396,248.534 215.396,248.201 217.5,248.5C 217.167,251.167 216.833,253.833 216.5,256.5C 204.939,260.424 199.773,256.424 201,244.5C 202.694,241.642 204.861,239.309 207.5,237.5 Z"/></g>
<g><path style="opacity:1" fill="#e4e4e4" d="M 237.5,237.5 C 244.59,237.079 246.757,240.079 244,246.5C 241.167,249.333 238.333,252.167 235.5,255C 238.453,255.892 241.119,255.392 243.5,253.5C 244.429,254.689 244.762,256.022 244.5,257.5C 239.821,257.666 235.155,257.499 230.5,257C 234.333,253.167 238.167,249.333 242,245.5C 243.583,240.9 242.083,239.066 237.5,240C 236.382,241.074 235.382,242.24 234.5,243.5C 234.167,243 233.833,242.5 233.5,242C 234.344,239.993 235.677,238.493 237.5,237.5 Z"/></g>
<g><path style="opacity:1" fill="#050505" d="M 153.5,247.5 C 152.167,247.5 150.833,247.5 149.5,247.5C 149.5,246.167 149.5,244.833 149.5,243.5C 149.5,242.5 149.5,241.5 149.5,240.5C 151.792,240.244 153.959,240.577 156,241.5C 156.972,244.294 156.139,246.294 153.5,247.5 Z"/></g>
<g><path style="opacity:1" fill="#010101" d="M 168.5,240.5 C 175.19,239.331 176.857,241.497 173.5,247C 171.866,247.494 170.199,247.66 168.5,247.5C 168.5,245.167 168.5,242.833 168.5,240.5 Z"/></g>
<g><path style="opacity:1" fill="#747474" d="M 149.5,243.5 C 149.5,244.833 149.5,246.167 149.5,247.5C 150.833,247.5 152.167,247.5 153.5,247.5C 152.081,248.451 150.415,248.784 148.5,248.5C 148.216,246.585 148.549,244.919 149.5,243.5 Z"/></g>
<g><path style="opacity:0.89" fill="#090909" d="M 356.5,276.5 C 350.167,276.5 343.833,276.5 337.5,276.5C 340.336,271.502 343.669,266.835 347.5,262.5C 351.349,266.67 354.349,271.337 356.5,276.5 Z"/></g>
<g><path style="opacity:0.88" fill="#fefefe" d="M 97.5,276.5 C 90.5297,286.322 83.6963,296.322 77,306.5C 71.1987,313.302 65.0321,319.802 58.5,326C 47.5674,334.253 35.2341,337.753 21.5,336.5C 21.5,335.167 21.5,333.833 21.5,332.5C 30.1584,332.336 37.8251,329.503 44.5,324C 58.7371,309.323 71.4038,293.489 82.5,276.5C 87.5999,275.2 92.5999,275.2 97.5,276.5 Z"/></g>
<g><path style="opacity:0.932" fill="#fefefe" d="M 153.5,276.5 C 157.964,284.586 163.298,292.086 169.5,299C 175.775,303.952 182.442,304.619 189.5,301C 190.211,299.745 191.044,298.579 192,297.5C 193.384,290.589 193.884,283.589 193.5,276.5C 197.833,275.167 202.167,275.167 206.5,276.5C 205.927,284.035 206.761,291.368 209,298.5C 212.381,302.222 216.547,304.555 221.5,305.5C 193.5,306.833 165.5,306.833 137.5,305.5C 139.657,304.21 141.99,303.376 144.5,303C 146.209,301.084 147.543,298.918 148.5,296.5C 145.005,289.507 141.005,282.84 136.5,276.5C 142.067,275.196 147.734,275.196 153.5,276.5 Z M 153.5,276.5 C 166.833,276.5 180.167,276.5 193.5,276.5C 193.884,283.589 193.384,290.589 192,297.5C 191.044,298.579 190.211,299.745 189.5,301C 182.442,304.619 175.775,303.952 169.5,299C 163.298,292.086 157.964,284.586 153.5,276.5 Z"/></g>
<g><path style="opacity:0.918" fill="#fdfdfd" d="M 283.5,276.5 C 283.334,282.842 283.5,289.175 284,295.5C 286.797,301.658 291.63,304.992 298.5,305.5C 283.833,306.833 269.167,306.833 254.5,305.5C 259.84,304.714 264.34,302.381 268,298.5C 269.429,291.281 269.929,283.947 269.5,276.5C 274.167,275.167 278.833,275.167 283.5,276.5 Z"/></g>
<g><path style="opacity:0.468" fill="#fefffe" d="M 105.5,329.5 C 109.221,331.051 112.554,333.218 115.5,336C 113.484,340.701 112.317,340.534 112,335.5C 111,334.833 110,334.167 109,333.5C 108.535,334.931 107.701,336.097 106.5,337C 108.085,337.085 109.418,337.251 110.5,337.5C 109.752,339.332 108.752,340.999 107.5,342.5C 105.418,338.724 104.251,339.057 104,343.5C 104.725,344.059 105.558,344.392 106.5,344.5C 112.643,341.789 112.976,342.789 107.5,347.5C 103.946,346.231 100.946,344.231 98.5,341.5C 101.982,339.047 104.649,335.88 106.5,332C 105.748,331.329 105.414,330.496 105.5,329.5 Z"/></g>
<g><path style="opacity:0.483" fill="#fefffe" d="M 198.5,331.5 C 200.558,333.927 202.391,336.593 204,339.5C 205.171,340.893 206.671,341.727 208.5,342C 206.679,343.743 204.679,345.243 202.5,346.5C 202.875,342.597 201.375,339.263 198,336.5C 197.086,337.654 196.253,337.487 195.5,336C 197.117,334.908 198.117,333.408 198.5,331.5 Z"/></g>
<g><path style="opacity:0.475" fill="#fefffe" d="M 124.5,346.5 C 126.056,351.874 124.056,354.041 118.5,353C 117.139,351.193 115.805,350.193 114.5,350C 114.859,347.704 115.859,345.871 117.5,344.5C 117.329,339.506 119.662,337.672 124.5,339C 128.156,341.521 128.156,344.021 124.5,346.5 Z M 124.5,346.5 C 120.778,345.009 119.945,342.675 122,339.5C 124.137,341.321 124.97,343.654 124.5,346.5 Z M 117.5,344.5 C 120.364,346.023 122.031,348.357 122.5,351.5C 118.197,351.265 116.53,348.931 117.5,344.5 Z"/></g>
<g><path style="opacity:0.506" fill="#fefffe" d="M 184.5,338.5 C 192.509,338.517 194.175,341.85 189.5,348.5C 190.002,349.521 190.668,349.688 191.5,349C 193.038,344.399 194.371,344.566 195.5,349.5C 193.33,351.086 190.996,352.42 188.5,353.5C 188.167,352.5 187.833,351.5 187.5,350.5C 188.348,347.49 188.848,344.49 189,341.5C 187.365,340.151 185.865,340.318 184.5,342C 188.723,344.244 188.389,345.41 183.5,345.5C 183.298,343.05 183.631,340.717 184.5,338.5 Z"/></g>
<g><path style="opacity:0.506" fill="#fefffe" d="M 131.5,342.5 C 135.524,343.038 139.524,343.705 143.5,344.5C 143.513,351.234 142.513,351.734 140.5,346C 140.167,345.833 139.833,345.667 139.5,345.5C 138.434,349.009 137.434,352.509 136.5,356C 137.308,356.308 137.975,356.808 138.5,357.5C 136.129,358.337 133.796,358.003 131.5,356.5C 132.325,355.614 133.325,355.281 134.5,355.5C 134.594,351.864 135.261,348.364 136.5,345C 134.248,345.05 132.582,346.216 131.5,348.5C 131.08,346.674 131.08,344.674 131.5,342.5 Z"/></g>
<g><path style="opacity:0.521" fill="#fefffe" d="M 172.5,342.5 C 178.876,343.405 181.376,347.072 180,353.5C 178.529,357.546 176.029,358.379 172.5,356C 168.542,351.429 168.542,346.929 172.5,342.5 Z M 173.5,344.5 C 177.122,347.375 178.122,351.042 176.5,355.5C 172.853,352.558 171.853,348.892 173.5,344.5 Z"/></g>
<g><path style="opacity:0.473" fill="#fefffe" d="M 159.5,344.5 C 164.012,344.869 165.512,347.202 164,351.5C 162.5,353 161,354.5 159.5,356C 161.479,356.684 163.146,356.184 164.5,354.5C 165.452,356.045 165.785,357.712 165.5,359.5C 162.5,359.5 159.5,359.5 156.5,359.5C 157.625,355.916 159.292,352.582 161.5,349.5C 161.013,346.418 159.679,345.918 157.5,348C 158.973,348.71 159.64,349.876 159.5,351.5C 157.365,351.853 156.032,351.02 155.5,349C 156.117,346.773 157.451,345.273 159.5,344.5 Z"/></g>
</svg>
